<svg xmlns="http://www.w3.org/2000/svg" width="36" height="36" viewBox="0 0 36 36" fill="none">
  <path d="M18 5c-6.9 0-12 4.64-12 10.8 0 2.54 1.08 4.84 2.9 6.61l-.84 5.59 5.53-2.4c1.35.43 2.82.67 4.41.67 6.9 0 12-4.64 12-10.8S24.9 5 18 5Z" fill="#F5F7FA" stroke="#1E293B" stroke-width="2" stroke-linejoin="round"/>
  <path d="M21.46 20.28c-.18.5-.72.78-1.26.63-3.84-1.03-6.79-3.84-7.99-7.35-.18-.53.11-1.1.63-1.28l1.88-.66c.43-.15.9.05 1.11.46l.86 1.68c.17.33.12.73-.13 1l-.77.87c.75 1.73 2.08 3.02 3.76 3.81l.88-.79c.29-.26.7-.34 1.05-.2l1.76.69c.47.18.72.68.58 1.14l-.36 1.01Z" fill="#1E293B"/>
</svg>
